<svg height="789" viewBox="0 0 640 789" width="640" xmlns="http://www.w3.org/2000/svg"><g fill="none" fill-rule="evenodd"><g fill="#fff"><path d="m11.2784 304.5966c.002-.893.702-1.488 1.501-1.486005l66 .157005c.699.002 1.397.6 1.3950043 1.493l-.0420043 17.569c-.001.694-.702 1.386-1.4 1.386l-66.001-.158c-.799-.002-1.496-.698-1.4950011-1.393z"/><path d="m22.0597 228.1347c.169-.877.968-1.33 1.751-1.18l64.819 12.423c.687.132 1.261.848 1.093 1.725l-3.232 16.865c-.13.682-.788 1.466-1.666 1.803l-33.748 11.117 30.399 5.827c.687.131 1.261.847 1.093 1.725l-3.307 17.254c-.149.78-.948 1.233-1.635 1.101l-64.818-12.422c-.785-.15-1.359-.866-1.21-1.647l3.232-16.864c.168-.877.845-1.758 1.705-1.998l33.728-11.021-30.301-5.806c-.784-.15-1.34-.965-1.209-1.647z"/><path d="m58.7813 144.809c.351-.712 1.196-.849 1.692-.273l49.252 49.587c.54.488.816 1.509.466 2.221l-9.647 19.589c-.351.712-1.328 1.115-2.043.984l-69.336-8.806c-.758-.042-1.166-.796-.816-1.508l9.779-19.856c.394-.801 1.373-1.205 2.088-1.074l41.416 8.778-32.208-27.477c-.539-.486-.816-1.508-.422-2.31z"/><path d="m81.2765 116.5634c.543-.708 1.46-.756 2.094-.271l52.395 40.13c.555.425.748 1.323.204 2.032l-10.679 13.949c-.423.551-1.4.678-1.954.253l-52.397-40.131c-.634-.484-.767-1.462-.344-2.014z"/><path d="m130.0392 132.7806c-.468-.932-.167-1.626.754-1.807 5.103-1.238 10.379-3.597 13.331-5.965 2.312-2.177 2.805-4.695 1.23-6.368-4.038-4.29-24.142 15.043-39.059-.808-9.17-9.742-7.96-23.083 3.026-33.423 5.131-4.829 13.62-8.843 21.116-10.002.92-.18 1.685.197 1.81.765l5.096 14.537c.467.931.167 1.626-.754 1.806-5.457 1.297-11.015 3.647-13.749 5.811-2.24 2.109-2.728 4.487-1.223 6.086 4.037 4.289 24.218-15.251 39.273.744 9.1 9.67 7.747 23.147-3.383 33.623-6.072 5.713-14.211 9.81-20.563 10.302-.988.108-1.684-.197-1.809-.764z"/><path d="m156.8302 49.3402c.74-.498 1.626-.251 2.072.411l36.885 54.72c.391.579.287 1.491-.454 1.991l-14.566 9.818c-.577.389-1.543.197-1.934-.382l-36.884-54.72c-.447-.663-.262-1.63.315-2.019z"/><path d="m220.0411 73.4564c2.627-1.176 3.664-3.718 2.481-6.361-1.182-2.643-3.769-3.563-6.396-2.388l-7.339 3.284 3.915 8.749zm-11.418-21.141c2.718-1.216 3.796-3.668 2.654-6.218-1.141-2.552-3.688-3.382-6.406-2.166l-5.707 2.554 3.751 8.384zm-6.883-26.56c11.868-5.311 22.93-1.731 27.701 8.931 2.937 6.562 1.926 12.81-2.313 16.457 6.359-1.096 12.521 2.709 15.905 10.273 4.772 10.662.07 21.297-11.708 26.567l-28.719 12.852c-.724.324-1.553-.069-1.838-.707l-26.955-60.235c-.286-.638-.068-1.611.657-1.935z"/><path d="m289.7667 52.8226c.68-.148 1.389.311 1.559 1.091l1.874 15.123c.051.705-.479 1.535-1.254 1.705l-35.006 7.629c-.776.169-1.604-.366-1.752-1.048l-14.053-64.482c-.17-.781.36-1.612 1.136-1.781l17.163-3.741c.776-.168 1.604.366 1.773 1.147l10.524 48.288z"/><path d="m345.0177 50.7767c.794-.013 1.498.574 1.511 1.273l.260183 15.271c.012817.7-.669183 1.411-1.464183 1.424l-46.143.7901587c-.694.0128413-1.402-.7751587-1.613-1.4701587l-1.129381-65.98c-.015619-.899.473381-1.407 1.365381-1.422l45.15-.77324158c.894-.01475842 1.601.67124158 1.613 1.37024158l.258 15.074c.014.898-.669 1.508-1.563 1.524l-25.899.442.134 7.886 21.038-.36c.893-.015 1.401.676 1.312 1.276l-1.149 13.999c-.09.6-.773 1.311-1.666 1.327l-19.251.329.145 8.485z"/><path d="m426.0763 15.7899c.866.22 1.271 1.044 1.098 1.722l-3.724 14.607c-.222.872-.946 1.305-1.812 1.085l-24.427-6.226-2.243 8.804 19.329 4.925c.866.221 1.174 1.021.93 1.577l-4.798 13.202c-.246.555-1.09 1.061-1.957.841l-17.598-4.486-5.893 23.122c-.174.677-1.019 1.183-1.788.986l-17.021-4.338c-.77-.196-1.15-1.117-.977-1.794l16.299-63.948c.173-.678.923-1.207 1.691-1.012z"/><path d="m454.8419 59.6703c3.008 1.528 5.993.694 7.44-2.154 1.448-2.848.363-5.752-2.646-7.28l-5.219-2.652-4.795 9.434zm9.433 48.248c.036 1.026-.9 1.335-1.697.93l-18.932-9.622c-.885-.45-1.366-1.477-1.312-2.459l.659-24.078-1.06-.541-9.951 19.583c-.318.622-1.254.93-2.05.526l-15.57-7.914c-.708-.36-1.011-1.298-.695-1.92l29.9-58.833c.362-.713 1.297-1.021 2.005-.662l23.357 11.871c13.625 6.924 18.578 19.52 12.426 31.626-3.574 7.032-11.439 11.994-19.522 11.471z"/><path d="m521.7443 68.8207c.714.54.767 1.455.285 2.094l-39.783 52.654c-.421.558-1.317.756-2.03.218l-14.017-10.591c-.555-.418-.687-1.396-.267-1.953l39.785-52.655c.481-.637 1.457-.777 2.011-.358z"/><path d="m532.6212 150.3353c.544.577.586 1.493.078 1.973l-11.108 10.488c-.508.48-1.492.455-2.038-.123l-31.686-33.558c-.476-.505-.372-1.558-.001-2.183l47.988-45.31c.655-.618 1.358-.599 1.971.05l31.004 32.837c.613.65.582 1.635.074 2.115l-10.963 10.35c-.653.617-1.565.523-2.178-.125l-17.786-18.837-5.735 5.415 14.446 15.3c.614.65.446 1.489-.058 1.828l-11.118 8.588c-.504.338-1.489.314-2.102-.337l-13.22-14-6.171 5.827z"/><path d="m611.2003 182.0487c.44.776.127 1.639-.568 2.034l-57.395 32.571c-.608.346-1.51.172-1.951-.604l-8.474-14.932c-.342-.604-.349-1.628.101-2.454l18.481-30.344-26.918 15.277c-.607.345-1.508.173-1.95-.604l-8.67-15.278c-.391-.691-.078-1.554.531-1.899l57.395-32.573c.695-.394 1.597-.22 1.988.469l8.474 14.933c.44.777.497 1.885-.002 2.626l-18.53 30.257 26.83-15.226c.695-.395 1.646-.135 1.988.469z"/><path d="m577.8527 242.2426c1.951 7.39 9.641 10.698 19.197 8.175 9.557-2.525 14.612-9.197 12.66-16.587l-1.318-4.989-31.857 8.411zm48.93-14.152c5.372 20.345-4.282 37.368-24.361 42.671-19.887 5.251-36.878-4.738-42.25-25.082l-5.878-22.265c-.177-.672.321-1.522 1.092-1.725l63.715-16.824c.773-.204 1.626.288 1.803.961z"/><path d="m589.838 288.4652c1.005.275 1.319.964.837 1.768-2.5 4.62-4.281 10.117-4.501 13.895.066 3.175 1.607 5.227 3.903 5.179 5.89-.124 5.004-28.002 26.764-28.459 13.377-.281 22.471 9.554 22.789 24.638.148 7.046-2.559 16.038-6.72 22.379-.482.806-1.274 1.119-1.78.831l-14.205-5.955c-1.006-.276-1.319-.965-.837-1.769 2.692-4.921 4.669-10.622 4.896-14.102-.065-3.075-1.503-5.031-3.7-4.984-5.888.124-4.899 28.198-26.859 28.659-13.277.28-22.376-9.756-22.697-25.038-.176-8.335 2.236-17.122 6.125-22.167.582-.807 1.274-1.119 1.779-.832z"/><path d="m633.882 484.6425c-.003.893-.702 1.487-1.501 1.485005l-66.001-.157005c-.698-.002-1.396-.599-1.394004-1.492l.041004-17.569c.001-.693.703-1.386 1.401-1.386l66.001.157c.799.003 1.496.699 1.494004 1.394z"/><path d="m623.0997 561.1044c-.168.877-.966 1.33-1.751 1.18l-64.818-12.422c-.687-.133-1.261-.849-1.093-1.727l3.231-16.864c.131-.683.789-1.466 1.667-1.804l33.748-11.116-30.399-5.827c-.687-.131-1.261-.848-1.093-1.724l3.307-17.255c.149-.781.948-1.234 1.634-1.101l64.819 12.422c.784.15 1.358.867 1.21 1.647l-3.233 16.864c-.167.877-.844 1.758-1.704 1.998l-33.729 11.02 30.302 5.808c.784.15 1.34.964 1.21 1.647z"/><path d="m586.38 644.4306c-.352.712-1.197.849-1.693.272l-49.252-49.586c-.54-.489-.817-1.508-.465-2.221l9.646-19.59c.352-.711 1.329-1.115 2.043-.984l69.336 8.806c.758.042 1.166.796.816 1.508l-9.779 19.856c-.394.801-1.373 1.206-2.088 1.075l-41.416-8.779 32.209 27.477c.539.486.815 1.508.42 2.31z"/><path d="m563.8839 672.6757c-.543.709-1.46.757-2.094.271l-52.396-40.13c-.555-.425-.747-1.324-.204-2.033l10.68-13.947c.422-.552 1.4-.679 1.954-.254l52.396 40.13c.635.486.768 1.463.345 2.015z"/><path d="m515.1202 656.4589c.468.931.167 1.626-.753 1.806-5.104 1.238-10.38 3.599-13.331 5.965-2.312 2.177-2.805 4.696-1.23 6.369 4.037 4.289 24.141-15.043 39.059.807 9.17 9.742 7.96 23.083-3.026 33.423-5.131 4.83-13.621 8.844-21.117 10.002-.92.181-1.684-.196-1.809-.765l-5.096-14.536c-.468-.931-.167-1.627.754-1.806 5.457-1.298 11.014-3.648 13.749-5.811 2.239-2.108 2.728-4.487 1.223-6.087-4.037-4.289-24.218 15.252-39.273-.744-9.101-9.67-7.747-23.146 3.383-33.622 6.072-5.714 14.211-9.811 20.562-10.303.989-.108 1.684.198 1.81.765z"/><path d="m488.3204 739.9032c-.741.499-1.626.251-2.072-.41l-36.876-54.725c-.391-.58-.286-1.492.454-1.991l14.567-9.819c.576-.387 1.543-.197 1.933.383l36.876 54.724c.446.663.261 1.63-.316 2.019z"/><path d="m436.5363 736.9227c-2.718 1.217-3.795 3.668-2.654 6.219 1.142 2.552 3.687 3.382 6.406 2.165l5.708-2.554-3.752-8.384zm-11.418-21.141c-2.627 1.176-3.664 3.718-2.481 6.361 1.182 2.642 3.769 3.564 6.397 2.387l7.338-3.283-3.915-8.749zm18.302 47.703c-11.869 5.309-22.931 1.729-27.702-8.933-2.936-6.562-1.926-12.81 2.313-16.457-6.36 1.096-12.52-2.709-15.905-10.274-4.772-10.661-.07-21.295 11.707-26.566l28.72-12.852c.725-.325 1.553.071 1.838.708l26.955 60.235c.285.638.068 1.61-.658 1.933z"/><path d="m355.3917 736.4149c-.678.148-1.388-.311-1.557-1.09l-1.875-15.123c-.05-.705.479-1.535 1.254-1.705l35.006-7.63c.776-.169 1.604.367 1.752 1.05l14.053 64.48c.17.782-.36 1.612-1.136 1.781l-17.163 3.741c-.775.17-1.604-.366-1.773-1.147l-10.524-48.288z"/><path d="m300.1427 738.4628c-.794.014-1.498-.573-1.511-1.272l-.260183-15.272c-.012817-.699.670183-1.41 1.464183-1.424l46.143-.789184c.694-.013816 1.403.775184 1.613 1.469184l1.129429 65.98c.016571.9-.472429 1.407-1.365429 1.422l-45.15.774211c-.894.013789-1.6-.672211-1.612-1.370211l-.259-15.074c-.014-.898.669-1.508 1.563-1.525l25.899-.441-.134-7.887-21.038.36c-.893.016-1.401-.676-1.312-1.276l1.15-13.997c.089-.601.772-1.312 1.664-1.327l19.251-.33-.144-8.485z"/><path d="m219.0841 773.451c-.865-.221-1.27-1.045-1.098-1.724l3.724-14.607c.222-.871.947-1.305 1.812-1.083l24.427 6.226 2.244-8.805-19.33-4.926c-.865-.221-1.174-1.02-.928-1.577l4.797-13.201c.245-.556 1.09-1.062 1.956-.84l17.598 4.484 5.894-23.121c.173-.677 1.018-1.183 1.788-.986l17.021 4.337c.77.197 1.15 1.118.977 1.796l-16.3 63.947c-.172.678-.922 1.207-1.691 1.011z"/><path d="m190.3185 729.5692c-3.008-1.528-5.992-.694-7.439 2.155-1.449 2.847-.364 5.751 2.645 7.281l5.219 2.652 4.795-9.435zm-9.433-48.248c-.035-1.025.901-1.334 1.697-.93l18.932 9.622c.886.451 1.366 1.477 1.312 2.459l-.66 24.078 1.062.54 9.951-19.582c.317-.622 1.253-.93 2.049-.526l15.571 7.914c.707.36 1.011 1.298.694 1.92l-29.9 58.833c-.361.713-1.296 1.022-2.005.662l-23.356-11.871c-13.625-6.924-18.578-19.52-12.427-31.625 3.574-7.032 11.439-11.995 19.522-11.471z"/><path d="m123.4161 720.4188c-.713-.538-.767-1.455-.285-2.092l39.783-52.655c.422-.558 1.318-.757 2.031-.218l14.016 10.591c.555.418.687 1.395.267 1.952l-39.785 52.655c-.481.638-1.457.777-2.01.358z"/><path d="m112.5401 638.9042c-.545-.577-.587-1.493-.078-1.974l11.107-10.487c.509-.479 1.493-.455 2.038.123l31.686 33.559c.477.506.373 1.558.001 2.181l-47.988 45.312c-.654.617-1.358.599-1.971-.05l-31.004-32.838c-.613-.65-.582-1.635-.073-2.114l10.962-10.351c.653-.617 1.566-.523 2.179.126l17.785 18.836 5.735-5.415-14.445-15.3c-.614-.649-.446-1.49.057-1.828l11.118-8.588c.504-.338 1.489-.313 2.103.337l13.219 14 6.172-5.827z"/><path d="m33.9591 607.1913c-.44-.777-.126-1.64.568-2.034l57.396-32.572c.608-.346 1.51-.172 1.95.604l8.475 14.933c.342.603.348 1.627-.101 2.453l-18.481 30.345 26.918-15.277c.607-.346 1.508-.173 1.949.604l8.67 15.277c.391.69.078 1.555-.53 1.899l-57.395 32.573c-.695.393-1.597.22-1.988-.469l-8.475-14.933c-.44-.777-.496-1.885.003-2.626l18.53-30.257-26.831 15.227c-.694.394-1.645.135-1.988-.47z"/><path d="m67.3077 546.9979c-1.951-7.39-9.641-10.697-19.198-8.174-9.557 2.525-14.611 9.195-12.659 16.586l1.317 4.99 31.857-8.412zm-48.93 14.151c-5.372-20.344 4.282-37.367 24.361-42.67 19.886-5.251 36.878 4.737 42.25 25.082l5.878 22.264c.177.672-.321 1.523-1.093 1.727l-63.715 16.824c-.772.203-1.625-.29-1.803-.962z"/><path d="m55.3224 500.7763c-1.005-.277-1.318-.966-.836-1.77 2.499-4.62 4.281-10.117 4.5-13.894-.066-3.176-1.606-5.228-3.902-5.18-5.89.124-5.003 28.002-26.765 28.46-13.376.28-22.471-9.555-22.788-24.639-.148-7.045 2.559-16.038 6.719-22.379.482-.804 1.275-1.119 1.78-.831l14.206 5.955c1.005.277 1.319.965.837 1.769-2.693 4.921-4.67 10.622-4.897 14.102.065 3.075 1.504 5.031 3.701 4.984 5.889-.123 4.898-28.198 26.859-28.659 13.276-.279 22.375 9.756 22.697 25.038.175 8.335-2.236 17.122-6.125 22.168-.583.806-1.275 1.118-1.78.832z"/><path d="m23.6114 401.7255v.212zm8.467-11.06c.423 0 .794.371.794.742v16.827c0 .476-.265.953-.636 1.27-3.175 2.699-8.043 4.286-13.123 4.286-11.431 0-19.051-7.62-19.051-19.05s7.62-19.05 19.051-19.05c3.916 0 8.043 1.164 11.112 3.069.424.212.582.635.477.953l-2.646 7.779c-.159.37-.529.529-1.006.423-2.169-1.164-4.974-1.852-7.62-1.852-4.868 0-8.149 3.493-8.149 8.678 0 5.292 3.281 8.784 8.149 8.784 1.958 0 3.282-.37 3.864-1.005v-3.069h-4.869c-.476 0-.793-.212-.846-.582l-.689-7.303c-.052-.529.265-.9.847-.9z"/><path d="m77.4239 376.537c.424 0 .741.371.741.794v34.978c0 .371-.317.741-.741.741h-9.789c-.424 0-.794-.37-.794-.741v-15.558l-5.345 15.505c-.159.424-.846.794-1.323.794h-5.82c-.477 0-1.164-.37-1.324-.794l-5.344-15.505v15.558c0 .371-.37.741-.794.741h-9.789c-.424 0-.741-.37-.741-.741v-34.978c0-.423.317-.794.741-.794h11.059c.688 0 1.482.477 1.799 1.059l7.303 20.213 7.303-20.213c.317-.582 1.111-1.059 1.798-1.059z"/><path d="m589.7648 403.8417v.211zm8.467-11.06c.423 0 .794.371.794.741v16.828c0 .475-.265.952-.635 1.269-3.176 2.7-8.044 4.286-13.124 4.286-11.43 0-19.05-7.62-19.05-19.049 0-11.431 7.62-19.051 19.05-19.051 3.916 0 8.044 1.165 11.112 3.07.424.211.582.635.477.952l-2.646 7.779c-.159.371-.529.529-1.005.423-2.169-1.164-4.974-1.852-7.621-1.852-4.868 0-8.148 3.493-8.148 8.679 0 5.292 3.28 8.784 8.148 8.784 1.959 0 3.282-.37 3.864-1.006v-3.068h-4.869c-.476 0-.793-.212-.846-.582l-.688-7.303c-.053-.529.264-.9.846-.9z"/><path d="m632.8888 378.6527c.477 0 .793.371.793.794v34.978c0 .37-.316.74-.793.74h-9.154c-.371 0-.848-.263-1.112-.687l-9.208-16.457v16.404c0 .37-.317.74-.794.74h-9.366c-.423 0-.741-.37-.741-.74v-34.978c0-.423.318-.794.741-.794h9.155c.476 0 1.005.265 1.217.688l9.155 16.457v-16.351c0-.423.371-.794.74-.794z"/><path d="m452.5773 288.4515c-1.057 0-2.13-.24-3.139-.748-3.454-1.736-4.845-5.943-3.109-9.398 3.232-6.431 7.841-18.962 2.377-30.636-4.866-10.398-16.711-17.86-35.205-22.181-5.77-1.348-11.309-5.145-17.172-9.165-11.456-7.856-23.306-15.977-39.242-10.005-3.64 1.363-7.445 2.676-11.125 3.946-1.805.623-3.622 1.249-5.445 1.891-3.643 1.282-7.642-.634-8.925-4.281-1.283-3.648.633-7.644 4.281-8.926 1.849-.65 3.692-1.287 5.522-1.918 3.761-1.298 7.312-2.523 10.78-3.823 22.758-8.528 39.702 3.088 52.071 11.569 4.748 3.255 9.232 6.33 12.44 7.079 22.884 5.346 37.923 15.399 44.7 29.879 7.969 17.028 1.824 34.162-2.549 42.86-1.23 2.445-3.697 3.857-6.26 3.857"/><path d="m224.0001 580.1532c-24.778 0-51.761-9.987-74.21-29.646-42.237-36.989-52.66-94.419-23.233-128.023 8.393-9.584 18.546-16.089 31.039-19.885 3.7-1.124 7.609.964 8.733 4.663 1.124 3.7-.964 7.609-4.663 8.733-9.918 3.013-17.957 8.153-24.577 15.712-24.341 27.797-14.506 76.365 21.925 108.267 36.43 31.905 85.872 35.243 110.213 7.448 3.729-4.26 6.733-9.105 8.927-14.4 1.48-3.571 5.574-5.268 9.147-3.787 3.571 1.48 5.266 5.575 3.787 9.147-2.78 6.708-6.591 12.852-11.328 18.262-13.787 15.744-33.918 23.509-55.76 23.509"/><path d="m296.5333 541.6903c-6.805 0-13.706-.571-20.595-1.727-23.491-3.94-44.082-14.352-57.979-29.32-2.631-2.832-2.467-7.262.366-9.892 2.832-2.63 7.262-2.466 9.893.367 24.109 25.963 71.954 34.409 106.652 18.832 3.527-1.585 7.67-.007 9.253 3.518 1.584 3.528.008 7.67-3.519 9.253-13.196 5.925-28.368 8.969-44.071 8.969"/><path d="m461.964 328.892c-.725 0-1.462-.113-2.188-.353-3.672-1.208-5.67-5.164-4.462-8.836 3.04-9.242-.007-20.481-8.361-30.835-9.011-11.172-22.423-19.57-34.166-21.397-3.819-.594-6.434-4.173-5.841-7.993.595-3.82 4.174-6.432 7.994-5.841 18.195 2.831 34.096 15.514 42.91 26.441 11.392 14.122 15.315 30.159 10.762 44-.968 2.945-3.707 4.814-6.648 4.814"/><path d="m208.8097 454.9345c-14.94 0-31.589-6.094-43.621-21.574-19.62-25.244-21.051-55.655-3.827-81.351 2.152-3.212 6.501-4.071 9.712-1.917 3.212 2.153 4.07 6.501 1.917 9.712-13.698 20.435-12.483 44.721 3.252 64.964 12.326 15.858 32.267 18.99 45.596 13.892 5.131-1.964 16.946-8.246 15.827-24.121-.271-3.856 2.635-7.202 6.492-7.474 3.841-.279 7.203 2.635 7.474 6.491 1.232 17.494-8.035 31.767-24.789 38.179-5.337 2.042-11.523 3.199-18.033 3.199"/><path d="m229.0782 422.2255c-12.156 0-25.568-4.209-38.093-14.646-18.058-15.048-28.94-36.68-29.108-57.865-.147-18.365 7.727-34.915 22.769-47.862 2.931-2.521 7.349-2.19 9.872.74 2.522 2.93 2.191 7.35-.739 9.872-11.824 10.177-18.015 23.019-17.903 37.139.135 16.866 9.358 34.96 24.072 47.222 12.25 10.209 32.565 16.42 48.215 5.935 9.683-6.487 13.091-17.031 9.352-28.93-1.16-3.688.891-7.617 4.579-8.776 3.687-1.159 7.617.891 8.777 4.579 5.566 17.715-.148 34.864-14.916 44.758-7.187 4.814-16.581 7.834-26.877 7.834"/><path d="m243.9503 381.0282c-6.914 0-13.587-1.375-19.356-4.26-28.741-14.37-39.949-41.761-40.855-62.605-.603-13.866 7.328-41.773 31.18-57.627 3.219-2.14 7.564-1.264 9.704 1.955 2.14 3.22 1.265 7.565-1.954 9.704-17.846 11.862-25.435 34.079-24.944 45.36.253 5.826 3.041 35.647 33.129 50.691 12.088 6.045 31.717 1.825 42.865-9.212 6.941-6.873 13.298-18.997 4.165-37.727-1.695-3.475-.251-7.665 3.223-9.36 3.475-1.695 7.665-.252 9.36 3.224 9.82 20.135 7.305 39.749-6.898 53.812-10.422 10.319-25.517 16.045-39.619 16.045"/><path d="m277.1017 319.5922c-16.666 0-32.867-5.558-45.978-16.21-11.737-9.537-21.556-31.669-16.636-53.903 6.317-28.541 33.013-39.289 48.364-43.155 6.356-1.601 12.094-3.571 17.641-5.476 17.336-5.952 33.71-11.574 56.695-.142 8.863 4.408 18.366 6.679 27.557 8.874 22.256 5.317 45.271 10.816 50.658 46.514.576 3.823-2.055 7.389-5.878 7.966-3.814.574-7.389-2.054-7.966-5.877-3.978-26.364-18.335-29.794-40.067-34.986-9.491-2.267-20.246-4.836-30.538-9.956-17.745-8.825-29.561-4.767-45.915.848-5.821 1.999-11.84 4.066-18.768 5.811-21.406 5.391-34.586 16.666-38.113 32.604-3.526 15.93 3.378 33.173 11.795 40.012 15.657 12.722 36.849 16.43 56.692 9.919 21.029-6.901 36.567-24.232 42.63-47.55.972-3.741 4.794-5.983 8.536-5.013 3.741.972 5.985 4.794 5.013 8.536-7.284 28.018-26.17 48.914-51.815 57.329-7.882 2.586-15.949 3.855-23.907 3.855"/><path d="m479.6476 396.1181c-.672 0-1.355-.098-2.031-.303-3.7-1.119-5.792-5.027-4.671-8.727 6.348-20.967 2.583-40.422-10.328-53.378-17.631-17.692-49.198-21.425-86.602-10.241-3.707 1.108-7.603-.997-8.712-4.702-1.107-3.703.998-7.604 4.702-8.711 42.5-12.707 79.143-7.688 100.529 13.772 16.666 16.723 21.699 41.259 13.809 67.316-.915 3.024-3.692 4.974-6.696 4.974"/><path d="m491.0031 451.3016c-.473 0-.951-.048-1.433-.147-3.785-.788-6.214-4.495-5.427-8.28 4.685-22.525-.597-41.953-14.494-53.3-18.239-14.895-48.355-14.981-82.625-.237-3.547 1.526-7.667-.112-9.196-3.663-1.528-3.552.112-7.669 3.663-9.197 39.233-16.878 74.591-16.058 97.014 2.253 18.079 14.764 25.13 39.182 19.345 66.996-.688 3.304-3.6 5.575-6.847 5.575"/><path d="m453.8771 442.12c-17.674 0-37.468 5.27-56.153 16.058-20.695 11.947-36.823 28.77-45.413 47.369-8.21 17.775-8.455 34.972-.688 48.424 16.517 28.607 64.071 32.184 106.01 7.971 41.936-24.212 62.617-67.184 46.1-95.793-9.157-15.861-27.863-24.029-49.856-24.029m-52.175 149.816c-3.055 0-6.08-.134-9.069-.407-24.158-2.202-43.028-13.055-53.135-30.558-10.105-17.504-10.068-39.272.104-61.295 9.792-21.2 27.947-40.243 51.122-53.623 23.174-13.379 48.744-19.583 72-17.461 24.158 2.202 43.028 13.053 53.134 30.557s10.069 39.272-.103 61.295c-9.792 21.199-27.947 40.243-51.122 53.623-20.196 11.66-42.214 17.869-62.931 17.869"/><path d="m390.6115 555.7587c-2.42 0-4.772-1.255-6.069-3.501-4.788-8.294-3.424-19.034 3.841-30.243 6.353-9.802 16.734-19.173 29.23-26.388 28.12-16.234 56.311-16.374 65.579-.325 1.933 3.348.785 7.629-2.562 9.562-3.349 1.931-7.629.787-9.563-2.562-3.864-6.692-23.407-7.857-46.454 5.45-10.462 6.04-19.385 14.014-24.482 21.877-4.136 6.381-5.431 12.224-3.464 15.629 1.932 3.348.785 7.629-2.563 9.563-1.102.635-2.306.938-3.493.938"/><path d="m336.004 288.205c-1.844 0-3.685-.724-5.06-2.162-2.671-2.793-2.573-7.224.22-9.897 13.523-12.934 34.274-21.849 55.509-23.848 23.524-2.218 45.12 3.895 60.807 17.204 2.947 2.501 3.309 6.919.808 9.867-2.502 2.946-6.918 3.31-9.867.808-12.785-10.848-30.702-15.798-50.436-13.941-18.201 1.714-35.824 9.2-47.143 20.028-1.357 1.296-3.099 1.941-4.838 1.941"/></g><path d="m130.6085 245.4608 33.817 17.581" fill="#e6e6e6"/><path d="m164.42 270.0438c-1.088 0-2.191-.254-3.224-.791l-33.817-17.581c-3.43-1.784-4.765-6.01-2.981-9.44 1.783-3.43 6.009-4.764 9.439-2.982l33.817 17.582c3.431 1.783 4.766 6.009 2.983 9.44-1.247 2.397-3.689 3.772-6.217 3.772" fill="#fff"/><path d="m202.6085 149.1815 22.604 28.465" fill="#e6e6e6"/><path d="m225.2169 184.6473c-2.062 0-4.104-.907-5.486-2.647l-22.605-28.465c-2.403-3.028-1.898-7.431 1.129-9.835 3.027-2.405 7.43-1.9 9.835 1.129l22.605 28.464c2.404 3.028 1.899 7.431-1.129 9.835-1.287 1.022-2.824 1.519-4.349 1.519" fill="#fff"/><path d="m324.6603 108.1586-.274 37.292" fill="#e6e6e6"/><path d="m324.3868 152.4506h-.053c-3.866-.029-6.976-3.186-6.948-7.052l.274-37.291c.029-3.849 3.158-6.949 6.999-6.949h.052c3.866.029 6.977 3.186 6.948 7.052l-.274 37.291c-.028 3.849-3.156 6.949-6.998 6.949" fill="#fff"/><path d="m530.6134 247.9721-33.817 17.582" fill="#e6e6e6"/><path d="m496.8009 272.5556c-2.528 0-4.97-1.374-6.217-3.772-1.783-3.431-.448-7.657 2.983-9.44l33.817-17.582c3.428-1.782 7.655-.449 9.439 2.982 1.784 3.43.449 7.656-2.982 9.44l-33.817 17.581c-1.032.537-2.135.791-3.223.791" fill="#fff"/><path d="m461.1251 153.3676-23.442 27.628" fill="#e6e6e6"/><path d="m437.6788 187.996c-1.601 0-3.209-.546-4.524-1.663-2.949-2.501-3.311-6.918-.81-9.866l23.441-27.628c2.501-2.947 6.919-3.311 9.867-.808 2.948 2.501 3.31 6.918.809 9.866l-23.441 27.628c-1.385 1.632-3.357 2.471-5.342 2.471" fill="#fff"/><path d="m196.6085 640.3202 22.604-28.465" fill="#e6e6e6"/><path d="m196.6036 647.3202c-1.525 0-3.062-.496-4.349-1.519-3.027-2.404-3.532-6.807-1.129-9.835l22.605-28.464c2.404-3.029 6.808-3.534 9.835-1.128 3.028 2.404 3.533 6.807 1.129 9.835l-22.605 28.465c-1.382 1.74-3.424 2.646-5.486 2.646" fill="#fff"/><path d="m318.6603 681.3436-.274-37.292" fill="#e6e6e6"/><path d="m318.6593 688.3436c-3.843 0-6.971-3.1-6.999-6.948l-.274-37.292c-.029-3.866 3.082-7.024 6.948-7.052h.053c3.841 0 6.97 3.1 6.999 6.948l.274 37.292c.028 3.866-3.083 7.024-6.949 7.052z" fill="#fff"/><path d="m443.5665 640.3202-22.604-28.465" fill="#e6e6e6"/><path d="m443.5714 647.3202c-2.063 0-4.104-.906-5.486-2.646l-22.605-28.465c-2.404-3.028-1.899-7.431 1.128-9.835 3.029-2.406 7.433-1.898 9.835 1.128l22.605 28.464c2.404 3.028 1.899 7.431-1.128 9.835-1.287 1.023-2.825 1.519-4.349 1.519" fill="#fff"/></g></svg>